{
  "accessors": [
    {
      "bufferView": 2,
      "componentType": 5126,
      "count": 222,
      "max": [
        15.044403076171875,
        32.44960403442383,
        181.80752563476563
      ],
      "min": [
        -88.1265869140625,
        -48.990745544433594,
        -7.1228837966918945
      ],
      "type": "VEC3"
    },
    {
      "bufferView": 2,
      "byteOffset": 2664,
      "componentType": 5126,
      "count": 222,
      "max": [
        1.0,
        1.0,
        1.0
      ],
      "min": [
        -1.0,
        -1.0,
        -1.0
      ],
      "type": "VEC3"
    },
    {
      "bufferView": 1,
      "componentType": 5126,
      "count": 222,
      "max": [
        0.8081220388412476,
        0.9328787922859192
      ],
      "min": [
        0.019999999552965164,
        0.019999999552965164
      ],
      "type": "VEC2"
    },
    {
      "bufferView": 0,
      "componentType": 5125,
      "count": 444,
      "type": "SCALAR"
    },
    {
      "bufferView": 2,
      "byteOffset": 5328,
      "componentType": 5126,
      "count": 4,
      "max": [
        -5.6787261962890625,
        -47.48244857788086,
        170.9314727783203
      ],
      "min": [
        -79.4609146118164,
        -47.482460021972656,
        28.85711669921875
      ],
      "type": "VEC3"
    },
    {
      "bufferView": 2,
      "byteOffset": 5376,
      "componentType": 5126,
      "count": 4,
      "max": [
        1.0340431089161939e-07,
        -1.0,
        -2.68500084388279e-08
      ],
      "min": [
        1.0340431089161939e-07,
        -1.0,
        -2.68500084388279e-08
      ],
      "type": "VEC3"
    },
    {
      "bufferView": 1,
      "byteOffset": 1776,
      "componentType": 5126,
      "count": 4,
      "max": [
        1.0,
        1.0
      ],
      "min": [
        0.0,
        0.0
      ],
      "type": "VEC2"
    },
    {
      "bufferView": 0,
      "byteOffset": 1776,
      "componentType": 5125,
      "count": 6,
      "type": "SCALAR"
    }
  ],
  "asset": {
    "extras": {
      "author": "Mikail Karaca (https://sketchfab.com/Xavaltir)",
      "license": "CC-BY-4.0 (http://creativecommons.org/licenses/by/4.0/)",
      "source": "https://sketchfab.com/3d-models/komi-san-vending-machine-a92562fa756e44bba9d2f5904e1c2432",
      "title": "Komi San vending machine"
    },
    "generator": "Sketchfab-12.67.0",
    "version": "2.0"
  },
  "bufferViews": [
    {
      "buffer": 0,
      "byteLength": 1800,
      "name": "floatBufferViews",
      "target": 34963
    },
    {
      "buffer": 0,
      "byteLength": 1808,
      "byteOffset": 1800,
      "byteStride": 8,
      "name": "floatBufferViews",
      "target": 34962
    },
    {
      "buffer": 0,
      "byteLength": 5424,
      "byteOffset": 3608,
      "byteStride": 12,
      "name": "floatBufferViews",
      "target": 34962
    }
  ],
  "buffers": [
    {
      "byteLength": 9032,
      "uri": "scene.bin"
    }
  ],
  "images": [
    {
      "uri": "textures/Material_25_baseColor.png"
    }
  ],
  "materials": [
    {
      "doubleSided": true,
      "name": "Material_25",
      "pbrMetallicRoughness": {
        "baseColorTexture": {
          "index": 0
        },
        "metallicFactor": 0.0,
        "roughnessFactor": 0.8929713596497552
      }
    },
    {
      "alphaMode": "BLEND",
      "doubleSided": true,
      "name": "Material_26",
      "pbrMetallicRoughness": {
        "baseColorFactor": [
          0.1043288112642192,
          0.4749723782233014,
          0.505454398364313,
          0.25964365065472683
        ],
        "metallicFactor": 0.0,
        "roughnessFactor": 0.1554506889679147
      }
    }
  ],
  "meshes": [
    {
      "name": "Box004_Material #25_0",
      "primitives": [
        {
          "attributes": {
            "NORMAL": 1,
            "POSITION": 0,
            "TEXCOORD_0": 2
          },
          "indices": 3,
          "material": 0,
          "mode": 4
        }
      ]
    },
    {
      "name": "Box004_Material #26_0",
      "primitives": [
        {
          "attributes": {
            "NORMAL": 5,
            "POSITION": 4,
            "TEXCOORD_0": 6
          },
          "indices": 7,
          "material": 1,
          "mode": 4
        }
      ]
    }
  ],
  "nodes": [
    {
      "children": [
        1
      ],
      "matrix": [
        1.0,
        0.0,
        0.0,
        0.0,
        0.0,
        2.220446049250313e-16,
        -1.0,
        0.0,
        0.0,
        1.0,
        2.220446049250313e-16,
        0.0,
        0.0,
        0.0,
        0.0,
        1.0
      ],
      "name": "Sketchfab_model"
    },
    {
      "children": [
        2
      ],
      "matrix": [
        1.0,
        0.0,
        0.0,
        0.0,
        0.0,
        0.0,
        1.0,
        0.0,
        0.0,
        -1.0,
        0.0,
        0.0,
        0.0,
        0.0,
        0.0,
        1.0
      ],
      "name": "4435de9de7804a7bb055cd640f9b2f78.fbx"
    },
    {
      "children": [
        3
      ],
      "name": "RootNode"
    },
    {
      "children": [
        4,
        5
      ],
      "matrix": [
        4.3711387731626417e-08,
        5.551115123125783e-17,
        0.9999999999999993,
        0.0,
        0.9999999999999993,
        0.0,
        -4.371138789815987e-08,
        0.0,
        -5.551115123125783e-17,
        1.0000000000000002,
        -2.220446049250313e-16,
        0.0,
        2.3850173950195313,
        10.909034729003906,
        39.321624755859375,
        1.0
      ],
      "name": "Box004"
    },
    {
      "mesh": 0,
      "name": "Box004_Material #25_0"
    },
    {
      "mesh": 1,
      "name": "Box004_Material #26_0"
    }
  ],
  "samplers": [
    {
      "magFilter": 9729,
      "minFilter": 9987,
      "wrapS": 10497,
      "wrapT": 10497
    }
  ],
  "scene": 0,
  "scenes": [
    {
      "name": "Sketchfab_Scene",
      "nodes": [
        0
      ]
    }
  ],
  "textures": [
    {
      "sampler": 0,
      "source": 0
    }
  ]
}
